<?xml version="1.0" encoding="UTF-8"?>
<svg version="1.1" xmlns="http://www.w3.org/2000/svg" width="1024" height="1024">
<path d="M0 0 C5.76699106 0.00690585 11.53395715 -0.00374665 17.3009429 -0.01193976 C28.54574793 -0.0251587 39.7904923 -0.02245286 51.03529954 -0.01370184 C60.18840717 -0.00687847 69.341498 -0.00602847 78.49460745 -0.00927329 C80.46163397 -0.00996284 80.46163397 -0.00996284 82.46839839 -0.01066632 C84.46546079 -0.0113851 86.46252318 -0.01210394 88.45958557 -0.01284699 C113.3130231 -0.0219835 138.16642788 -0.01376834 163.01986034 0.0024437 C185.00522449 0.01667598 206.99053648 0.01540191 228.97590017 0.00106072 C253.78961086 -0.01507208 278.60329271 -0.02133502 303.41700792 -0.01210248 C306.07167895 -0.01114701 308.72634999 -0.0102039 311.38102102 -0.00927329 C312.68658054 -0.00881046 313.99214005 -0.00834764 315.33726197 -0.00787079 C324.46092536 -0.00529933 333.58457001 -0.00961166 342.7082305 -0.01671195 C353.85331042 -0.02519616 364.99832711 -0.02270344 376.14339995 -0.00686972 C381.81079104 0.00092113 387.47807738 0.00426534 393.14546728 -0.00581717 C454.41365727 -0.10564998 518.54153521 2.41706785 567.93781424 43.39217401 C568.5166033 43.8694494 569.09539236 44.34672479 569.69172049 44.83846307 C581.23949104 54.40964439 591.72438646 64.50685218 600.93781424 76.39217401 C601.36707205 76.9397033 601.79632986 77.4872326 602.23859549 78.05135369 C641.65825825 128.63234748 643.43923987 192.04392817 643.32998824 253.45435977 C643.32308239 259.22135083 643.33373489 264.98831692 643.34192801 270.75530267 C643.35514694 282.0001077 643.35244111 293.24485207 643.34369008 304.48965931 C643.33686671 313.64276694 643.33601671 322.79585777 643.33926153 331.94896722 C643.33972123 333.26031823 643.34018093 334.57166924 643.34065456 335.92275816 C643.34137334 337.91982056 643.34209218 339.91688295 643.34283523 341.91394534 C643.35197174 366.76738287 643.34375659 391.62078765 643.32754454 416.47422011 C643.31331226 438.45958426 643.31458633 460.44489625 643.32892752 482.43025994 C643.34506032 507.24397063 643.35132327 532.05765248 643.34209073 556.87136769 C643.34113525 559.52603872 643.34019214 562.18070975 643.33926153 564.83538079 C643.33879871 566.14094031 643.33833588 567.44649982 643.33785903 568.79162174 C643.33528757 577.91528513 643.3395999 587.03892978 643.34670019 596.16259027 C643.3551844 607.30767019 643.35269168 618.45268688 643.33685796 629.59775972 C643.32906711 635.26515081 643.3257229 640.93243715 643.33580542 646.59982705 C643.43563822 707.86801704 640.91292039 771.99589498 599.93781424 821.39217401 C599.46053885 821.97096307 598.98326345 822.54975213 598.49152517 823.14608026 C588.92034385 834.69385081 578.82313606 845.17874623 566.93781424 854.39217401 C566.39028494 854.82143182 565.84275564 855.25068963 565.27863455 855.69295526 C514.69764076 895.11261802 451.28606007 896.89359964 389.87562847 896.78434801 C384.10863741 896.77744216 378.34167133 896.78809466 372.57468557 896.79628778 C361.32988054 896.80950671 350.08513617 896.80680088 338.84032893 896.79804985 C329.68722131 896.79122648 320.53413047 896.79037648 311.38102102 896.7936213 C309.41399451 896.79431085 309.41399451 896.79431085 307.40723008 896.79501433 C305.41016768 896.79573311 303.41310529 896.79645195 301.41604291 896.797195 C276.56260537 896.80633151 251.70920059 896.79811636 226.85576813 896.78190431 C204.87040398 896.76767203 182.885092 896.7689461 160.8997283 896.78328729 C136.08601761 896.79942009 111.27233576 896.80568304 86.45862055 896.7964505 C83.80394952 896.79549502 81.14927849 896.79455191 78.49460745 896.7936213 C77.18904793 896.79315848 75.88348842 896.79269565 74.5383665 896.7922188 C65.41470311 896.78964734 56.29105846 896.79395967 47.16739798 896.80105996 C36.02231805 896.80954417 24.87730136 896.80705145 13.73222852 896.79121773 C8.06483743 896.78342688 2.39755109 896.78008267 -3.26983881 896.79016519 C-76.36778357 896.90925207 -142.79744222 889.56140769 -197.37468576 836.32967401 C-202.29078017 831.2854729 -206.74861137 825.95668497 -211.06218576 820.39217401 C-211.49144358 819.84464471 -211.92070139 819.29711541 -212.36296701 818.73299432 C-251.78262978 768.15200053 -253.5636114 704.74041984 -253.45435977 643.32998824 C-253.44745392 637.56299718 -253.45810642 631.7960311 -253.46629953 626.02904534 C-253.47951847 614.78424031 -253.47681263 603.53949594 -253.46806161 592.2946887 C-253.46123824 583.14158108 -253.46038824 573.98849024 -253.46363306 564.83538079 C-253.46409276 563.52402978 -253.46455246 562.21267877 -253.46502609 560.86158985 C-253.46574487 558.86452745 -253.46646371 556.86746506 -253.46720676 554.87040268 C-253.47634327 530.01696514 -253.46812811 505.16356036 -253.45191607 480.3101279 C-253.43768379 458.32476375 -253.43895786 436.33945177 -253.45329905 414.35408807 C-253.46943185 389.54037738 -253.47569479 364.72669553 -253.46646225 339.91298032 C-253.46550678 337.25830929 -253.46456367 334.60363826 -253.46363306 331.94896722 C-253.46317023 330.6434077 -253.46270741 329.33784819 -253.46223056 327.99272627 C-253.4596591 318.86906288 -253.46397143 309.74541823 -253.47107172 300.62175775 C-253.47955593 289.47667782 -253.47706321 278.33166113 -253.46122949 267.18658829 C-253.45343864 261.5191972 -253.45009443 255.85191086 -253.46017694 250.18452096 C-253.56000975 188.91633097 -251.03729192 124.78845303 -210.06218576 75.39217401 C-209.58491037 74.81338494 -209.10763498 74.23459588 -208.6158967 73.63826776 C-199.04471538 62.0904972 -188.94750759 51.60560178 -177.06218576 42.39217401 C-176.51465647 41.96291619 -175.96712717 41.53365838 -175.40300608 41.09139276 C-124.82201229 1.67172999 -61.4104316 -0.10925163 0 0 Z " fill="#4EB1F6" transform="translate(317.06218576431274,63.60782599449158)"/>
<path d="M0 0 C11.12036312 -0.31524771 21.97144086 0.47551152 32.97705078 2.06640625 C34.17330078 2.23785156 35.36955078 2.40929687 36.60205078 2.5859375 C54.50653853 5.68325402 72.19659647 12.08817692 87.97705078 21.06640625 C89.10111328 21.70320313 90.22517578 22.34 91.38330078 22.99609375 C114.18483761 36.51414773 135.6019133 56.02185807 148.97705078 79.06640625 C148.97705078 79.72640625 148.97705078 80.38640625 148.97705078 81.06640625 C149.9931543 81.04545898 151.00925781 81.02451172 152.05615234 81.00292969 C189.3800829 80.30162237 189.3800829 80.30162237 205.97705078 85.06640625 C207.64485503 85.50713338 209.31282971 85.94721598 210.98095703 86.38671875 C251.46140649 97.44823692 288.34037161 124.24957682 309.71533203 160.63671875 C321.97705078 182.12217148 321.97705078 182.12217148 321.97705078 187.06640625 C322.98380859 187.03160156 323.99056641 186.99679687 325.02783203 186.9609375 C361.37856133 186.10794205 396.03368898 199.72706225 422.42797852 224.61108398 C441.87861732 243.34409738 454.75938297 266.1065004 461.97705078 292.06640625 C462.17057129 292.7610498 462.3640918 293.45569336 462.56347656 294.17138672 C471.37254135 327.8342981 463.68495184 365.17273204 446.75756836 394.87866211 C430.4242067 422.53482701 406.49549611 442.06160162 376.97705078 454.06640625 C375.84009766 454.58203125 374.70314453 455.09765625 373.53173828 455.62890625 C369.6111747 457.21436493 365.78206586 458.21682224 361.66455078 459.12890625 C360.96910156 459.28939453 360.27365234 459.44988281 359.55712891 459.61523438 C358.15420963 459.93542402 356.74928305 460.24696153 355.34237206 460.54912931 C353.84365329 460.87688718 352.34843806 461.22149234 350.85895908 461.58896416 C343.44455603 463.29655252 336.22598667 463.34886513 328.64382935 463.32710266 C327.20831856 463.33012781 325.77280939 463.3340191 324.33730304 463.33869523 C320.41528813 463.34893716 316.49336502 463.34680317 312.57134271 463.34251463 C308.33265728 463.34004048 304.09399356 463.3490701 299.85531616 463.35655212 C291.56011349 463.36928189 283.26494321 463.37109498 274.96973242 463.36875186 C268.2252187 463.36696666 261.48071479 463.36872267 254.73620224 463.3729763 C253.29469303 463.37386909 253.29469303 463.37386909 251.82406243 463.37477991 C249.87159054 463.37599169 247.91911866 463.37720583 245.96664678 463.37842228 C227.6688024 463.38929112 209.37097648 463.3871384 191.07313107 463.38103744 C174.34647988 463.37586851 157.61988693 463.38712426 140.89324726 463.40613566 C123.70311858 463.42552353 106.51301745 463.43376841 89.32287776 463.4300124 C79.67801234 463.42810185 70.03319648 463.43057377 60.38834 463.44472694 C52.17781634 463.45665378 43.96737278 463.45803099 35.75684799 463.44593678 C31.57103903 463.44005734 27.38537646 463.43892272 23.19957733 463.45093918 C19.36147778 463.46182909 15.52364632 463.458658 11.68555914 463.44467749 C9.65291713 463.44079733 7.62026308 463.45155216 5.58764946 463.46297437 C-2.37880937 463.41629706 -9.39668817 462.35108377 -17.02294922 460.06640625 C-17.71085883 459.87972281 -18.39876844 459.69303938 -19.1075238 459.50069886 C-42.55146951 453.07559999 -62.72797774 436.52509412 -74.91699219 415.67163086 C-87.12145175 394.18494449 -91.56387069 367.03717715 -85.46044922 342.75390625 C-82.60669617 334.06990505 -79.1075424 324.69329603 -74.02294922 317.06640625 C-74.52181641 316.73769531 -75.02068359 316.40898438 -75.53466797 316.0703125 C-78.03748212 314.41225429 -80.53029453 312.73970011 -83.02294922 311.06640625 C-84.02455078 310.40125 -85.02615234 309.73609375 -86.05810547 309.05078125 C-115.90956161 288.88381938 -140.52720306 260.67154981 -152.02294922 226.06640625 C-152.40507568 224.92437744 -152.40507568 224.92437744 -152.79492188 223.75927734 C-156.55546629 212.32803836 -159.27615133 200.96725229 -161.02294922 189.06640625 C-161.20728516 188.01195312 -161.39162109 186.9575 -161.58154297 185.87109375 C-166.42551326 144.11864184 -154.42312423 99.74839462 -128.46044922 66.62890625 C-123.86486759 60.91558911 -119.05064361 55.40364153 -114.02294922 50.06640625 C-113.41451172 49.40511719 -112.80607422 48.74382812 -112.17919922 48.0625 C-83.57826461 18.06787578 -40.83082521 1.34033122 0 0 Z " fill="#F1F9FE" transform="translate(353.02294921875,256.93359375)"/>
<path d="M0 0 C11.12036312 -0.31524771 21.97144086 0.47551152 32.97705078 2.06640625 C34.17330078 2.23785156 35.36955078 2.40929687 36.60205078 2.5859375 C54.50653853 5.68325402 72.19659647 12.08817692 87.97705078 21.06640625 C89.10111328 21.70320313 90.22517578 22.34 91.38330078 22.99609375 C114.18483761 36.51414773 135.6019133 56.02185807 148.97705078 79.06640625 C148.97705078 79.72640625 148.97705078 80.38640625 148.97705078 81.06640625 C148.02958984 81.23076172 148.02958984 81.23076172 147.06298828 81.3984375 C109.07058147 88.13196205 77.61708535 102.23458901 48.97705078 128.06640625 C48.22810547 128.741875 47.47916016 129.41734375 46.70751953 130.11328125 C25.16756032 150.64424033 10.87183814 179.31461345 3.22705078 207.75390625 C3.02829346 208.48907471 2.82953613 209.22424316 2.62475586 209.98168945 C-0.92345593 223.82017168 -1.2784268 237.18762309 -1.14794922 251.37890625 C-1.13789482 253.29491717 -1.12877334 255.21093323 -1.12060547 257.12695312 C-1.09879725 261.77356659 -1.06440431 266.41992824 -1.02294922 271.06640625 C-2.10181396 271.25759033 -3.18067871 271.44877441 -4.29223633 271.64575195 C-5.73246751 271.90681219 -7.17265052 272.16813821 -8.61279297 272.4296875 C-9.3209314 272.55444458 -10.02906982 272.67920166 -10.75866699 272.80773926 C-35.5030377 277.33839868 -56.64542176 293.1205092 -71.14794922 313.25390625 C-71.76669922 314.18203125 -72.38544922 315.11015625 -73.02294922 316.06640625 C-77.27244077 314.55157812 -80.94654411 312.388668 -84.71044922 309.94140625 C-85.32694336 309.54179688 -85.9434375 309.1421875 -86.57861328 308.73046875 C-95.77276457 302.68709525 -103.97938362 295.55211166 -112.02294922 288.06640625 C-112.73966797 287.41542969 -113.45638672 286.76445313 -114.19482422 286.09375 C-131.19267756 269.99541809 -144.65807241 248.23657387 -152.02294922 226.06640625 C-152.40507568 224.92437744 -152.40507568 224.92437744 -152.79492188 223.75927734 C-156.55546629 212.32803836 -159.27615133 200.96725229 -161.02294922 189.06640625 C-161.20728516 188.01195312 -161.39162109 186.9575 -161.58154297 185.87109375 C-166.42551326 144.11864184 -154.42312423 99.74839462 -128.46044922 66.62890625 C-123.86486759 60.91558911 -119.05064361 55.40364153 -114.02294922 50.06640625 C-113.41451172 49.40511719 -112.80607422 48.74382812 -112.17919922 48.0625 C-83.57826461 18.06787578 -40.83082521 1.34033122 0 0 Z " fill="#FECE00" transform="translate(353.02294921875,256.93359375)"/>
<path d="M0 0 C22.54681898 36.21882623 29.90932663 81.9192954 20.42724609 123.55395508 C9.95099681 166.30354259 -15.0365947 203.77172504 -52 228 C-52.63502441 228.41636719 -53.27004883 228.83273437 -53.92431641 229.26171875 C-74.40929372 242.4614563 -97.81537729 250.93233399 -122 254 C-122.79148437 254.11085938 -123.58296875 254.22171875 -124.3984375 254.3359375 C-158.48294171 258.31425503 -192.39966076 251.00747072 -223 236 C-216.87654068 218.11305305 -196.5507098 205.13353237 -180.49609375 197.0546875 C-176.08792738 194.95702826 -171.61130706 193.33632516 -166.9375 191.9375 C-165.92115479 191.63162964 -165.92115479 191.63162964 -164.88427734 191.31958008 C-160.11063741 190.01356206 -155.89664614 189.83077366 -151 190 C-151.15855469 188.82824219 -151.31710937 187.65648437 -151.48046875 186.44921875 C-155.19362598 152.64827589 -149.53356311 118.66772563 -132.98681641 88.78515625 C-132.00226303 87.00409384 -131.05264841 85.20741195 -130.10546875 83.40625 C-114.663282 54.61989213 -88.74711764 31.86523861 -60 17 C-59.38688965 16.68047363 -58.7737793 16.36094727 -58.14208984 16.03173828 C-43.28721393 8.39881386 -27.42603568 3.78781314 -11 1 C-9.97519531 0.81050781 -8.95039063 0.62101562 -7.89453125 0.42578125 C-5.20974037 0.0308525 -2.70791375 -0.07964452 0 0 Z " fill="#FEFAE3" transform="translate(503,338)"/>
</svg>
